<svg width="1024" height="1024" viewBox="0 0 1024 1024" fill="none" xmlns="http://www.w3.org/2000/svg">
<g clip-path="url(#clip0_1_5)">
<path d="M656 159C657.762 159.481 657.762 159.481 659.559 159.973C662.698 160.91 665.486 162.03 668.438 163.437C671.51 164.898 674.565 166.221 677.766 167.367C682.477 169.108 686.877 171.343 691.312 173.687C692.146 174.128 692.98 174.569 693.839 175.023C700.341 178.522 706.267 182.323 712 187C712.677 187.549 713.354 188.098 714.051 188.664C721.852 195.262 729.481 202.374 735 211C736.323 212.84 737.657 214.674 739 216.5C740.343 218.326 741.677 220.16 743 222C743.656 222.91 744.312 223.82 744.988 224.758C747.031 228.05 748.554 231.334 750.093 234.879C754.189 244.221 757.88 251.657 767.496 256.172C770.635 257.329 773.755 258.183 777 259C777.78 259.197 778.56 259.394 779.364 259.597C788.017 261.761 796.704 263.751 805.438 265.562C811.242 266.777 816.888 268.359 822.574 270.035C825.826 270.951 829.075 271.717 832.375 272.437C840.068 274.159 847.509 276.565 855 279C856.267 279.402 856.267 279.402 857.559 279.812C859.718 280.51 861.859 281.246 864 282C865.074 282.369 866.148 282.737 867.254 283.117C878.585 287.194 878.585 287.194 882 292C882 292.99 882 293.98 882 295C874.063 296.998 866.415 297.167 858.288 297.014C856.192 296.978 854.096 296.985 852 297C851.67 297.33 851.34 297.66 851 298C849.186 298.206 847.365 298.349 845.543 298.465C844.382 298.541 843.222 298.618 842.026 298.697C840.76 298.776 839.493 298.856 838.188 298.937C836.191 299.072 834.194 299.206 832.197 299.34C826.467 299.723 820.737 300.075 815.004 300.398C801.995 301.173 789.187 302.527 776.312 304.5C775.609 304.608 774.905 304.715 774.18 304.826C766.728 305.978 759.338 307.253 752 309C752 309.66 752 310.32 752 311C750.172 312.332 750.172 312.332 747.75 313.812C744.062 316.169 741.61 318.45 739 322C738.34 322 737.68 322 737 322C736.917 322.598 736.835 323.196 736.75 323.812C736 326 736 326 734.137 327.281C731.44 329.45 730.51 331.557 729.062 334.687C726.987 339.06 724.808 343.063 721.98 346.988C717.609 355.958 719.193 369.631 722.141 378.836C723.524 383.931 724.181 389.141 724.909 394.364C725.08 395.541 725.08 395.541 725.254 396.742C725.398 397.792 725.398 397.792 725.545 398.863C725.945 401.073 725.945 401.073 726.977 403.303C728.239 406.63 728.713 409.902 729.113 413.414C729.198 414.147 729.282 414.88 729.369 415.636C730.293 424.572 730.265 433.515 730.206 442.489C730.187 445.42 730.185 448.35 730.186 451.281C730.181 453.154 730.175 455.026 730.168 456.898C730.167 457.77 730.166 458.642 730.165 459.54C730.155 460.749 730.155 460.749 730.145 461.982C730.141 462.688 730.138 463.394 730.134 464.121C730 466 730 466 729 469C728.771 471.434 728.59 473.873 728.438 476.312C728.354 477.608 728.27 478.903 728.184 480.238C728.067 482.629 728.011 485.024 728.035 487.418C728 490 728 490 727 491C726.681 492.438 726.413 493.887 726.168 495.34C725.933 496.68 725.933 496.68 725.693 498.047C725.526 499.001 725.359 499.955 725.188 500.937C723.996 507.481 722.778 513.573 719.984 519.645C718.758 522.578 718.036 525.545 717.25 528.625C715.5 535.022 712.92 540.644 709.817 546.495C707.817 550.27 706.297 553.911 705 558C702.063 564.622 698.397 570.853 694.715 577.082C692.404 581.015 690.192 585 688 589C687.34 589 686.68 589 686 589C685.78 589.682 685.559 590.364 685.332 591.066C683.622 594.832 681.28 597.739 678.688 600.937C678.214 601.532 677.74 602.127 677.252 602.74C675.007 605.55 672.731 608.333 670.426 611.094C667.333 614.799 664.309 618.558 661.281 622.316C658.974 625.03 656.543 627.507 654 630C653.057 630.963 652.115 631.928 651.176 632.895C650.221 633.867 649.267 634.84 648.312 635.812C647.827 636.315 647.342 636.817 646.842 637.334C645.599 638.594 644.303 639.802 643 641C642.34 641 641.68 641 641 641C640.67 641.99 640.34 642.98 640 644C636.556 647 636.556 647 634 647C634 647.99 634 648.98 634 650C632.546 650.402 632.546 650.402 631.062 650.812C630.052 651.204 629.041 651.596 628 652C627.67 652.99 627.34 653.98 627 655C626.021 656.02 625.021 657.021 624 658C623.67 658.66 623.34 659.32 623 660C622.296 660.271 621.592 660.541 620.867 660.82C617.222 662.32 614.265 664.539 611.125 666.875C606.554 670.26 601.977 673.24 597 676C595.332 676.998 593.665 677.998 592 679C573.176 690.129 573.176 690.129 563.723 694.68C561.899 695.564 560.094 696.487 558.309 697.445C543.165 705.491 525.565 710.954 508.922 715.012C505.546 715.837 502.291 716.88 499 718C492.045 720.168 485.145 721.036 477.939 721.782C475.072 722.104 472.227 722.565 469.375 723C464.1 723.761 458.927 724.104 453.598 724.289C451.561 724.374 449.524 724.462 447.487 724.55C446.131 724.6 444.774 724.635 443.417 724.656C435.568 724.526 435.568 724.526 428.836 727.87C427.196 730.027 427.196 730.027 426 732.298C425.67 732.86 425.34 733.421 425 734C424.34 734 423.68 734 423 734C422.675 735.002 422.675 735.002 422.344 736.023C420.562 739.97 418.102 743.182 415.5 746.625C414.51 747.95 413.52 749.276 412.531 750.602C412.094 751.182 411.656 751.763 411.205 752.362C407.643 757.204 407.493 760.148 408 766C408.577 769.066 409.408 772.016 410.312 775C410.54 775.785 410.767 776.569 411.001 777.377C412.18 781.41 413.44 785.404 414.812 789.375C416 793 416 793 416 797C416.66 797.33 417.32 797.66 418 798C418.206 799.612 418.407 801.225 418.586 802.84C419.078 805.406 419.98 807.596 421 810C422.722 814.08 423.617 817.599 424 822C424.66 822 425.32 822 426 822C426.254 823.013 426.508 824.026 426.77 825.07C427.117 826.422 427.465 827.774 427.812 829.125C428.061 830.123 428.061 830.123 428.314 831.141C429.429 835.431 431.003 839.025 433 843C434.487 846.843 435.838 850.731 437.188 854.625C437.74 856.18 437.74 856.18 438.303 857.766C438.65 858.763 438.998 859.761 439.355 860.789C439.672 861.694 439.988 862.598 440.313 863.53C441 866 441 866 441 870C441.66 870 442.32 870 443 870C443.371 871.052 443.743 872.104 444.125 873.188C446.865 879.538 452.936 883.134 459 886C465.859 888.17 472.344 888.272 479.5 888.375C489.085 888.645 497.621 889.4 506.803 892.305C509.437 893.138 512.083 893.926 514.73 894.715C519.596 896.172 524.452 897.656 529.298 899.177C531.098 899.725 532.907 900.243 534.723 900.731C539.898 902.14 543.548 903.581 547.562 907.312C548.389 908.051 549.215 908.79 550.066 909.551C552.322 912.408 552.705 914.414 553 918C546.975 918.502 543.149 917.127 538 914C537.67 913.67 537.34 913.34 537 913C535.399 912.838 533.794 912.722 532.188 912.625C526.847 912.194 521.917 911.078 516.75 909.699C513.5 908.873 510.328 908.378 507 908C507 907.34 507 906.68 507 906C506.051 906.041 505.103 906.082 504.125 906.125C501.009 906.138 498.225 905.681 495.188 905C490.777 904.038 486.707 903.89 482.207 903.996C479.702 904.001 477.42 903.645 475 903C475 903.66 475 904.32 475 905C472.03 905 469.06 905 466 905C466.848 907.274 466.848 907.274 469.52 907.895C470.606 908.197 471.693 908.5 472.812 908.812C479.446 910.783 485.712 913.115 492 916C492.926 916.409 492.926 916.409 493.871 916.827C503.2 921.014 509.877 925.07 514 935C514 935.99 514 936.98 514 938C511.125 938.125 511.125 938.125 508 938C507.34 937.34 506.68 936.68 506 936C503.931 935.357 503.931 935.357 502 935C502 934.34 502 933.68 502 933C496.751 931.157 491.422 929.839 486.01 928.588C481.409 927.481 477.309 925.962 473 924C471.966 923.561 471.966 923.561 470.91 923.113C461.534 919.05 452.406 914.371 443.398 909.551C442.642 909.146 441.886 908.742 441.107 908.325C439.656 907.545 438.206 906.76 436.76 905.97C429.523 902.071 423.7 900.691 415.5 900.812C414.257 900.813 414.257 900.813 412.988 900.814C408.541 900.846 404.385 901.191 400 902C392.001 902.466 383.968 901.643 376 901C376 901.66 376 902.32 376 903C368.727 904.455 368.727 904.455 365.5 902.438C363.558 899.282 363.404 897.651 364 894C366.093 890.825 367.827 889.115 371 887C373.15 886.637 373.15 886.637 375.656 886.473C376.588 886.404 377.519 886.336 378.479 886.266C379.476 886.199 380.473 886.132 381.5 886.062C389.228 885.462 396.898 884.735 404.562 883.562C405.328 883.452 406.094 883.342 406.883 883.229C411.418 882.502 414.933 881.24 419 879C419.99 878.67 420.98 878.34 422 878C421.372 868.652 419.043 860.864 415.599 852.244C412.004 843.197 408.832 834.024 405.688 824.812C405.427 824.054 405.167 823.296 404.899 822.514C400.209 808.841 400.209 808.841 398.332 802.387C397.184 798.44 395.623 794.779 394 791C392.919 787.732 391.957 784.431 391 781.125C388.116 770.334 388.116 770.334 384 760C383.495 755.788 383.179 752.199 385.625 748.625C386.409 747.759 387.192 746.892 388 746C392.195 739.285 397 731.17 397 723C396.421 722.864 395.843 722.728 395.247 722.589C392.56 721.957 389.874 721.322 387.188 720.688C386.278 720.474 385.369 720.261 384.432 720.041C379.735 718.929 375.081 717.748 370.441 716.418C365.235 714.983 360.109 714.222 354.75 713.625C345.515 712.514 336.36 711.103 327.188 709.562C311.658 706.978 296.071 705.117 280.424 703.401C276.939 702.993 273.471 702.511 270 702C270 702.66 270 703.32 270 704C262.286 706 262.286 706 259 706C258.443 706.309 257.886 706.619 257.313 706.938C254.267 708.337 251.311 708.618 248 709C248 709.66 248 710.32 248 711C245.094 712.257 243.204 713 240 713C240 713.66 240 714.32 240 715C239.43 715.262 238.859 715.524 238.272 715.794C235.699 716.981 233.131 718.178 230.563 719.375C229.665 719.787 228.767 720.2 227.842 720.625C226.988 721.025 226.134 721.424 225.254 721.836C224.463 722.203 223.672 722.569 222.858 722.947C220.835 723.865 220.835 723.865 220 726C219.01 726 218.02 726 217 726C217 726.66 217 727.32 217 728C216.134 728.411 215.268 728.822 214.375 729.246C209.982 731.529 206.052 734.327 202 737.16C199.04 738.976 196.326 740.045 193 741C193 741.66 193 742.32 193 743C190.095 745.042 188.599 746 185 746C185 746.66 185 747.32 185 748C184.091 748.473 183.182 748.946 182.246 749.434C174.721 753.382 167.342 757.491 160.101 761.941C157.362 763.618 154.646 765.172 151.754 766.574C149.059 767.79 149.059 767.79 147.556 769.461C144.859 772.128 141.434 773.518 138.063 775.188C136.988 775.74 136.988 775.74 135.893 776.303C134.849 776.824 134.849 776.824 133.785 777.355C133.155 777.672 132.525 777.988 131.875 778.313C130 779 130 779 126 779C126 779.66 126 780.32 126 781C124.824 781.495 123.649 781.99 122.438 782.5C117.989 784.461 113.761 786.732 109.5 789.062C96.7352 796 96.7352 796 90 796C89.67 796.66 89.34 797.32 89 798C84.6567 799.678 80.7813 800.115 76.1875 799.438C72.5015 797.775 71.0498 796.469 69 793C67.6721 788.403 67.3481 783.545 69 779C71.3204 775.912 74.0529 773.482 77 771C77.7773 770.344 78.5546 769.688 79.3555 769.012C83.1256 765.962 86.4076 763.657 91 762C91 761.34 91 760.68 91 760C92.4999 758.978 94.0542 758.035 95.625 757.125C101.328 753.626 106.244 749.541 111.227 745.088C114.058 742.577 116.545 740.609 120 739C120.33 738.34 120.66 737.68 121 737C122.286 736.244 123.605 735.545 124.938 734.875C130.501 731.869 135.161 728.042 140 724C143.656 720.987 147.323 717.987 151 715C151.677 714.442 152.354 713.884 153.051 713.309C162.097 706.135 172.003 702.524 183.006 699.536C191.346 697.252 199.548 694.606 207.75 691.875C208.393 691.663 209.036 691.451 209.698 691.233C216.978 688.83 224.075 686.294 231 683C246.273 676 246.273 676 252 676C252 675.34 252 674.68 252 674C252.846 673.746 253.691 673.492 254.563 673.23C262.03 670.983 262.03 670.983 269.375 668.375C272.893 667.041 276.377 666.01 280 665C281.352 664.534 281.352 664.534 282.73 664.059C289.032 661.937 294.974 660.635 301.563 660C307.72 659.4 313.054 658.213 318.887 656.059C322.479 654.837 326.113 654.002 329.812 653.187C345.118 649.742 360.084 644.941 374.703 639.27C377.997 638.001 381.309 636.866 384.664 635.773C395.033 632.34 405.039 628.558 414.75 623.562C421.454 620.169 428.497 617.622 435.559 615.078C441.18 612.973 446.235 610.243 451.408 607.202C455.829 604.618 460.333 602.301 464.938 600.062C471.261 596.986 477.277 593.558 483.217 589.793C487.692 587 487.692 587 491 587C491 586.34 491 585.68 491 585C491.908 584.526 492.815 584.051 493.75 583.562C503.232 578.117 511.558 570.796 519.828 563.699C522.775 561.175 525.787 558.741 528.812 556.312C537.303 549.37 544.201 541.588 551 533C551.597 532.247 552.194 531.494 552.809 530.719C554.556 528.492 556.279 526.247 558 524C558.733 523.063 559.467 522.126 560.223 521.16C565.195 514.71 569.343 508.268 573 501C573.679 499.678 574.359 498.357 575.039 497.035C575.756 495.628 576.473 494.221 577.188 492.812C577.521 492.159 577.854 491.506 578.198 490.833C579.164 488.902 580.087 486.956 581 485C581.565 483.811 582.129 482.623 582.711 481.398C584.867 475.423 584.473 469.081 584.438 462.812C584.457 461.574 584.477 460.336 584.498 459.061C584.494 451.32 583.418 444.83 580.86 437.518C580 435 580 435 580 433C579.34 433 578.68 433 578 433C577.685 434.833 577.373 436.666 577.062 438.5C576.801 440.031 576.801 440.031 576.535 441.594C576.154 444.019 575.826 446.453 575.535 448.891C571.846 478.947 560.371 502.975 538.895 524.07C537.02 525.979 535.29 527.958 533.562 530C530.389 533.696 526.906 536.875 523.211 540.043C520.701 542.265 518.367 544.626 516 547C510.238 552.469 504.358 557.828 498.438 563.125C497.859 563.643 497.28 564.161 496.684 564.695C494.882 566.091 493.067 567.05 491 568C491 568.66 491 569.32 491 570C489.129 571.297 489.129 571.297 486.562 572.75C479.843 576.653 473.469 580.955 467.125 585.437C460.272 590.259 453.189 594.699 446 599C445.113 599.557 444.226 600.114 443.312 600.687C441 602 441 602 439 602C439 602.66 439 603.32 439 604C437.845 604.557 436.69 605.114 435.5 605.687C432.499 607.177 429.683 608.798 426.875 610.625C423.698 612.665 420.664 613.992 417 615C418.412 611.541 419.883 610.157 423.062 608.25C426.451 606.099 429.42 603.84 432.375 601.125C436.423 597.422 440.707 594.251 445.172 591.07C449.02 588.254 452.673 585.224 456.348 582.187C458.902 580.081 461.469 577.996 464.062 575.937C464.775 575.369 465.488 574.801 466.223 574.215C468 573 468 573 470 573C470.33 572.01 470.66 571.02 471 570C473.277 568.347 475.653 566.946 478.066 565.5C478.704 565.005 479.343 564.51 480 564C480 563.01 480 562.02 480 561C479.113 560.711 478.226 560.422 477.312 560.125C474.496 559.168 471.749 558.132 469 557C465.977 559.93 463.322 563.131 460.621 566.355C460.086 566.898 459.551 567.441 459 568C458.34 568 457.68 568 457 568C457 568.66 457 569.32 457 570C456.216 570.247 455.433 570.495 454.625 570.75C451.531 572.223 451.434 573.041 450 576C448.341 577.013 446.672 578.009 445 579C442.208 580.965 439.48 583.013 436.75 585.062C435.652 585.876 435.652 585.876 434.531 586.705C433.835 587.226 433.139 587.748 432.422 588.285C431.789 588.758 431.155 589.231 430.503 589.719C428.864 590.947 428.864 590.947 428 593C426.338 594.007 424.67 595.005 423 596C421.763 596.927 420.534 597.865 419.312 598.812C415.543 601.682 411.61 604.099 407.52 606.48C405.013 607.992 402.642 609.628 400.25 611.312C396.858 613.62 394.186 614.785 390 615C390 615.66 390 616.32 390 617C389.394 617.291 388.788 617.583 388.164 617.883C380.368 621.697 372.944 625.894 365.875 630.937C361.322 634.018 356.423 636.111 351.383 638.245C346.255 640.423 341.236 642.763 336.25 645.25C335.583 645.579 334.916 645.908 334.228 646.248C330.913 647.915 327.876 649.647 325 652C324.34 651.67 323.68 651.34 323 651C322.67 651.33 322.34 651.66 322 652C321.34 652 320.68 652 320 652C321.139 648.584 321.544 648.395 324.535 646.73C325.259 646.319 325.982 645.908 326.728 645.484C327.498 645.056 328.269 644.628 329.062 644.187C334.501 641.098 339.591 637.963 344.484 634.051C346.554 632.616 348.506 632.156 351 632C351 631.34 351 630.68 351 630C351.825 629.608 352.65 629.216 353.5 628.812C356.906 627.049 360.064 625.092 363.266 622.988C365 622 365 622 367 622C367 621.34 367 620.68 367 620C368.65 619.67 370.3 619.34 372 619C372 618.34 372 617.68 372 617C372.666 616.66 373.333 616.319 374.02 615.969C380.083 612.78 385.562 609.245 391.043 605.145C394.33 602.76 397.7 600.555 401.125 598.375C401.725 597.992 402.326 597.61 402.944 597.216C404.629 596.143 406.314 595.071 408 594C414.406 589.884 420.477 585.416 426.496 580.758C429 579 429 579 431 579C431 578.34 431 577.68 431 577C431.66 577 432.32 577 433 577C433 576.34 433 575.68 433 575C432.092 575.186 431.185 575.371 430.25 575.562C427.317 575.957 425.736 575.947 423 575C423.33 574.34 423.66 573.68 424 573C424 572.67 424 572.34 424 572C418.048 571.553 418.048 571.553 412.5 573.312C410.769 575.037 410.769 575.037 410 578C409.361 578.144 408.721 578.289 408.062 578.437C407.382 578.623 406.701 578.809 406 579C405.736 579.576 405.471 580.152 405.199 580.746C399.717 591.049 382.785 600.135 373 606C370.823 607.487 368.657 608.984 366.5 610.5C355.832 618 355.832 618 352 618C352 618.66 352 619.32 352 620C350.868 620.554 349.736 621.109 348.57 621.68C347.088 622.411 345.607 623.143 344.125 623.875C343.379 624.24 342.632 624.605 341.863 624.98C341.148 625.335 340.432 625.689 339.695 626.055C339.035 626.379 338.376 626.704 337.696 627.039C335.82 628.003 335.82 628.003 334 630C332.476 630.648 330.931 631.246 329.375 631.812C325.256 633.401 321.713 635.254 318.082 637.754C315.792 639.124 313.422 640.152 310.961 641.176C308.903 642.041 306.869 642.948 304.836 643.867C296.993 647.4 289.167 650.827 281.09 653.797C278.583 654.773 276.153 655.816 273.703 656.922C269.137 658.971 264.501 660.755 259.813 662.5C253.341 664.932 246.899 667.425 240.488 670.012C239.839 670.273 239.19 670.535 238.521 670.805C235.319 672.097 232.118 673.394 228.921 674.699C221.507 677.697 214.062 680.384 206.464 682.864C203.487 683.84 200.531 684.857 197.582 685.914C196.782 686.2 195.982 686.486 195.158 686.781C193.582 687.348 192.006 687.919 190.432 688.492C185.055 690.408 179.663 691.865 174.117 693.205C168.783 694.565 163.558 696.272 158.313 697.938C148.276 701.077 138.282 703.798 128 706C127.313 706.177 126.626 706.353 125.917 706.535C119.978 708.015 114.357 708.302 108.25 708.25C107.331 708.258 106.412 708.265 105.465 708.273C99.9154 708.257 95.3762 708.218 91.125 704.25C89.5142 701.028 89.8907 699.397 91 696C92.6146 694.073 94.1106 692.626 96 691C97.6043 689.542 99.2085 688.083 100.813 686.625C102.541 685.082 104.27 683.541 106 682C106.766 681.306 107.531 680.613 108.32 679.898C109.368 678.959 109.368 678.959 110.438 678C111.364 677.165 111.364 677.165 112.309 676.312C114 675 114 675 117 674C117 673.34 117 672.68 117 672C118.898 670.273 118.898 670.273 121.375 668.375C122.187 667.743 122.999 667.112 123.836 666.461C126 665 126 665 128 665C128.33 664.01 128.66 663.02 129 662C130.426 660.527 130.426 660.527 132.313 658.937C133.023 658.337 133.733 657.736 134.465 657.117C135.301 656.418 136.138 655.72 137 655C138.044 654.108 139.087 653.214 140.129 652.32C141.21 651.4 142.293 650.481 143.375 649.562C143.899 649.113 144.423 648.664 144.962 648.201C148.771 645 148.771 645 151 645C151.33 644.01 151.66 643.02 152 642C152.66 642 153.32 642 154 642C154.227 641.443 154.454 640.886 154.688 640.312C157.172 635.935 161.089 632.916 164.875 629.687C168.405 626.637 171.442 623.347 174.465 619.801C176.215 617.748 177.982 615.794 180 614C180.66 614 181.32 614 182 614C182 613.01 182 612.02 182 611C183.875 608.812 183.875 608.812 186 607C186.66 607 187.32 607 188 607C188 606.34 188 605.68 188 605C188.66 605 189.32 605 190 605C190.258 604.424 190.516 603.848 190.781 603.254C192.105 600.806 193.63 598.994 195.5 596.937C197.558 594.666 199.291 592.563 201 590C201.66 590 202.32 590 203 590C203 589.01 203 588.02 203 587C203.66 587 204.32 587 205 587C205.254 586.456 205.508 585.912 205.77 585.352C207.233 582.555 208.928 579.996 210.688 577.375C211.399 576.314 212.111 575.253 212.844 574.16C214.759 571.353 216.713 568.579 218.688 565.812C220.812 562.807 222.71 559.811 224.438 556.562C226.926 551.893 230.021 547.775 233.23 543.578C234.929 541.103 236.01 538.823 237 536C237.66 536 238.32 536 239 536C239.081 535.444 239.162 534.889 239.246 534.316C240.251 531.229 241.95 529.398 244.063 526.937C247.902 522.364 251.477 517.689 254.953 512.836C257.878 508.783 260.901 504.806 263.922 500.824C267.73 495.649 271.109 490.269 274.324 484.711C277.559 479.169 281.092 473.963 284.918 468.812C286.34 466.892 287.737 464.953 289.113 463C289.798 462.031 290.482 461.061 291.188 460.062C291.8 459.187 292.412 458.312 293.043 457.41C295.127 454.844 297.42 453.05 300 451C301.81 447.883 301.81 447.883 303 445C303.99 445 304.98 445 306 445C306.186 444.299 306.371 443.597 306.563 442.875C308.258 439.484 310.201 437.985 313.105 435.637C314.961 434.034 316.442 432.388 318 430.5C326.001 421.112 335.629 412.961 345.242 405.285C348.519 402.57 351.637 399.712 354.75 396.812C355.302 396.299 355.853 395.785 356.422 395.256C356.954 394.761 357.487 394.265 358.035 393.754C367.438 385 367.438 385 370 385C370 384.34 370 383.68 370 383C372.215 381.229 374.437 379.573 376.75 377.937C378.144 376.936 379.537 375.933 380.93 374.93C381.624 374.432 382.319 373.934 383.034 373.421C385.679 371.509 388.277 369.538 390.875 367.562C399.086 361.382 407.533 355.53 415.949 349.635C423.898 344.061 431.596 338.292 439 332C439.791 331.344 440.583 330.688 441.398 330.012C456.73 316.957 465.109 299.878 468.543 280.234C468.998 278.009 469.657 276.005 470.438 273.875C471.915 269.72 472.649 265.522 473.375 261.187C474.628 253.938 476.93 247.696 480 241C480.816 238.939 481.628 236.876 482.438 234.812C484.373 230.151 486.685 226.14 489.59 222.023C490.886 220.164 492.023 218.292 493.125 216.312C494.963 213.065 496.797 210.01 499 207C499.66 207 500.32 207 501 207C501.266 206.417 501.531 205.835 501.805 205.234C512.322 185.574 535.805 173.28 555 164C556.435 163.238 556.435 163.238 557.898 162.461C561.585 160.725 565.277 159.557 569.188 158.437C569.936 158.221 570.684 158.004 571.455 157.78C577.249 156.136 583.036 154.86 589 154C590.454 153.735 590.454 153.735 591.938 153.465C613.021 150.495 635.794 152.582 656 159Z" fill="#50BCED"/>
<path d="M500 728C501.819 729.978 502.027 731.319 501.922 733.973C501.61 736.833 501.296 739.408 500 742C499.554 748.354 500.654 753.115 503 759C503.255 759.651 503.51 760.302 503.773 760.973C506.276 766.93 509.388 772.582 512.433 778.274C515.451 783.923 518.337 789.628 521.173 795.37C523.627 800.317 526.241 805.158 528.969 809.961C530 812 530 812 530 814C530.99 814.495 530.99 814.495 532 815C533.31 817.148 534.544 819.295 535.75 821.5C538.586 826.602 541.557 831.484 544.969 836.23C546 838 546 838 546 841C547.485 841.495 547.485 841.495 549 842C550.033 843.983 551.034 845.983 552 848C552.66 848.33 553.32 848.66 554 849C554 849.99 554 850.98 554 852C554.66 852 555.32 852 556 852C557.022 852.978 558.02 853.981 559 855C560.485 855.99 560.485 855.99 562 857C562.66 857.66 563.32 858.32 564 859C566.323 859.701 568.658 860.365 571 861C571.695 861.345 572.39 861.691 573.105 862.047C577.395 863.459 581.513 863.294 586 863.25C587.464 863.244 587.464 863.244 588.958 863.238C595.421 863.163 601.767 862.713 608.187 862C616.502 861.1 624.763 860.716 633.125 860.625C634.796 860.586 634.796 860.586 636.501 860.547C646.763 860.522 655.001 863.436 663.687 868.75C665.209 869.67 665.209 869.67 666.762 870.609C667.5 871.068 668.239 871.527 669 872C668.67 873.65 668.34 875.3 668 877C661.665 877.38 661.665 877.38 658.375 875.5C654.045 873.576 650.687 873.844 645.996 873.961C641.311 874.007 636.676 873.762 632 873.5C616.99 872.717 601.969 872.445 587 874C586.67 874.99 586.34 875.98 586 877C586.57 877.116 587.141 877.232 587.728 877.351C590.299 877.876 592.868 878.407 595.437 878.937C596.335 879.12 597.233 879.302 598.158 879.49C599.012 879.667 599.866 879.845 600.746 880.027C601.537 880.19 602.328 880.352 603.142 880.519C605 881 605 881 606 882C608.012 882.475 610.036 882.903 612.062 883.312C614.016 883.729 615.97 884.146 617.924 884.563C619.309 884.855 620.696 885.139 622.084 885.417C632.24 887.472 640.946 889.919 647 899C646.625 901.187 646.625 901.187 646 903C641.043 903.451 638.237 903.405 634.062 900.625C629.004 897.491 624.011 897.112 618.203 896.633C614.855 896.355 611.938 895.982 608.691 895.039C603.699 893.634 598.707 893.14 593.562 892.562C586.325 891.7 579.11 890.81 571.937 889.5C570.75 889.283 569.563 889.067 568.34 888.844C564.638 887.909 561.465 886.589 558 885C558 884.34 558 883.68 558 883C555.03 882.34 552.06 881.68 549 881C549 880.34 549 879.68 549 879C542.014 877.305 535.635 876.789 528.469 877.094C527.511 877.124 526.553 877.153 525.566 877.184C522.544 877.278 519.522 877.388 516.5 877.5C513.449 877.612 510.399 877.72 507.348 877.816C505.458 877.875 503.568 877.944 501.679 878.023C500.83 878.049 499.982 878.076 499.107 878.104C498.36 878.132 497.613 878.16 496.844 878.189C495 878 495 878 493 876C493.08 872.324 493.602 870.488 495.937 867.625C502.335 864.231 510.068 865.973 517 867C517.33 866.34 517.66 865.68 518 865C518.763 865.021 519.526 865.041 520.312 865.062C523.102 865.129 523.102 865.129 526 864C526 863.01 526 862.02 526 861C526.66 861 527.32 861 528 861C528.605 855.099 526.554 851.14 524 846C523.506 844.987 523.013 843.974 522.504 842.93C519.616 837.052 519.616 837.052 516.406 831.348C514.964 828.94 513.888 826.472 512.812 823.883C511.359 820.515 509.665 817.267 508 814C502 802.218 502 802.218 502 798C501.34 798 500.68 798 500 798C499.714 797.362 499.428 796.724 499.133 796.067C492.018 780.218 492.018 780.218 484.125 764.75C472.143 742.571 472.143 742.571 474.812 733.125C480.561 727.541 492.523 725.739 500 728Z" fill="#50BCED"/>
</g>
<defs>
<clipPath id="clip0_1_5">
<rect width="1024" height="1024" fill="white"/>
</clipPath>
</defs>
</svg>
